<svg width="14" height="14" viewBox="0 0 14 14" fill="none" xmlns="http://www.w3.org/2000/svg">
<path d="M6.99999 1.16666C3.78166 1.16666 1.16666 3.78166 1.16666 6.99999C1.16666 10.2183 3.78166 12.8333 6.99999 12.8333C10.2183 12.8333 12.8333 10.2183 12.8333 6.99999C12.8333 3.78166 10.2183 1.16666 6.99999 1.16666Z" fill="#FBBF24"/>
<path d="M7.00001 4.08331C8.21667 4.08331 9.20417 5.07081 9.20417 6.28748C9.20417 6.94164 8.89417 7.52498 8.41167 7.92498L8.14084 8.15414L6.41667 9.87498V10.5H7.58334V8.75414L8.80834 7.52914C9.22917 7.14914 9.49584 6.63331 9.49584 6.06664C9.49584 4.90414 8.64917 4.05831 7.58334 4.05831C6.54584 4.05831 5.67084 4.88331 5.67084 5.83331H4.95834C4.95834 4.54581 5.86251 3.58331 7.00001 4.08331Z" fill="white"/>
</svg>
